<svg xmlns="http://www.w3.org/2000/svg" width="9.051" height="16.779" viewBox="0 0 9.051 16.779"><defs><style>.a{fill:#2a2a2a;}</style></defs><path class="a" d="M30.92,19.571H28.841c-.336,0-.441-.126-.441-.441V16.589c0-.336.126-.441.441-.441H30.92V14.3a4.665,4.665,0,0,1,.567-2.373,3.485,3.485,0,0,1,1.869-1.554,4.672,4.672,0,0,1,1.617-.273h2.058c.294,0,.42.126.42.42v2.394c0,.294-.126.42-.42.42-.567,0-1.134,0-1.7.021a.758.758,0,0,0-.861.861c-.021.63,0,1.239,0,1.89h2.436c.336,0,.462.126.462.462v2.541c0,.336-.105.441-.462.441H34.469V26.4c0,.357-.1.483-.483.483H31.361c-.315,0-.441-.126-.441-.441Z" transform="translate(-28.4 -10.1)"/></svg>