<svg xmlns="http://www.w3.org/2000/svg" width="16.412" height="16.412" viewBox="0 0 16.412 16.412"><defs><style>.a{fill:#2a2a2a;}</style></defs><g transform="translate(-10 -10)"><path class="a" d="M48.906,46.522V40.511c0-2.954-.636-5.211-4.083-5.211A3.562,3.562,0,0,0,41.6,37.064h-.041v-1.5H38.3V46.522h3.406V41.085c0-1.436.267-2.811,2.031-2.811,1.744,0,1.764,1.621,1.764,2.893V46.5h3.406Z" transform="translate(-22.494 -20.11)"/><path class="a" d="M11.3,36.6h3.406V47.555H11.3Z" transform="translate(-1.033 -21.143)"/><path class="a" d="M11.969,10a1.98,1.98,0,1,0,1.969,1.969A1.97,1.97,0,0,0,11.969,10Z"/></g></svg>