<svg xmlns="http://www.w3.org/2000/svg" width="35" height="35" viewBox="0 0 35 35"><defs><style>.a{fill:#e2886c;}.b{fill:#fff;}</style></defs><g transform="translate(-328 -1204)"><rect class="a" width="35" height="35" rx="17.5" transform="translate(328 1204)"/><g transform="translate(340.621 1212.454)"><path class="b" d="M31.117,20.312H28.875c-.362,0-.475-.136-.475-.475V17.1c0-.362.136-.475.475-.475h2.242V14.628a5.029,5.029,0,0,1,.611-2.559,3.757,3.757,0,0,1,2.015-1.676,5.038,5.038,0,0,1,1.743-.294h2.219c.317,0,.453.136.453.453v2.581c0,.317-.136.453-.453.453-.611,0-1.223,0-1.834.023a.818.818,0,0,0-.928.928c-.023.679,0,1.336,0,2.038H37.57c.362,0,.5.136.5.5v2.74c0,.362-.113.475-.5.475H34.944V27.67c0,.385-.113.521-.521.521h-2.83c-.34,0-.475-.136-.475-.475v-7.4Z" transform="translate(-28.4 -10.1)"/></g></g></svg>