<svg xmlns="http://www.w3.org/2000/svg" width="22.469" height="14.388" viewBox="0 0 22.469 14.388"><defs><style>.a{fill:#2a2a2a;}</style></defs><g transform="translate(0 5.008)"><path class="a" d="M7.89,91.2H11.4a4.466,4.466,0,1,1-1.212-4.789.484.484,0,0,0,.658,0l1.29-1.214a.482.482,0,0,0,0-.7,7.167,7.167,0,0,0-4.8-1.97,7.194,7.194,0,1,0,7.039,7.6c.006-.047.009-1.651.009-1.651H7.89a.482.482,0,0,0-.482.482v1.767A.482.482,0,0,0,7.89,91.2Z" transform="translate(0 -87.527)"/><path class="a" d="M328.067,165.241v-1.633a.4.4,0,0,0-.4-.4h-1.375a.4.4,0,0,0-.4.4v1.633H324.26a.4.4,0,0,0-.4.4v1.375a.4.4,0,0,0,.4.4h1.633v1.633a.4.4,0,0,0,.4.4h1.375a.4.4,0,0,0,.4-.4v-1.633H329.7a.4.4,0,0,0,.4-.4v-1.375a.4.4,0,0,0-.4-.4Z" transform="translate(-307.631 -162.942)"/></g></svg>