<svg xmlns="http://www.w3.org/2000/svg" width="1366" height="83" viewBox="0 0 1366 83"><defs><style>.a{fill:#fff;}.b{fill:#8e8e8e;font-size:16px;font-family:Prompt-Regular, Prompt;}.c{opacity:0.996;}.d{fill:#1d252e;}.d,.e,.f{fill-rule:evenodd;}.e{fill:#f3b229;}.f{fill:#df542f;}</style></defs><g transform="translate(0 -1748)"><rect class="a" width="1366" height="83" transform="translate(0 1748)"/><g transform="translate(-55 -1216)"><text class="b" transform="translate(614 3012)"><tspan x="0" y="0">Powered by </tspan></text><g class="c" transform="translate(724.912 2990.599)"><g transform="translate(0.088 0.119)"><g transform="translate(0 0)"><g transform="translate(0 0)"><path class="d" d="M32.268,18.712s-.131-.522-2.277-.835a25.6,25.6,0,0,1-3.018-.559,4.671,4.671,0,0,1-2.144-1.279,3.6,3.6,0,0,1-.9-2.611,3.884,3.884,0,0,1,.847-2.465,5.613,5.613,0,0,1,2.471-1.705,10.834,10.834,0,0,1,3.892-.626,16.128,16.128,0,0,1,3.2.32,9.353,9.353,0,0,1,2.649.906l-1.557,3.437a9.493,9.493,0,0,0-4.135-.944,5.743,5.743,0,0,0-1.573.15,1.049,1.049,0,0,0-.671.517c-.219.432.008,1.1,2.447,1.342a16.475,16.475,0,0,1,3.031.613,4.654,4.654,0,0,1,2.089,1.266,3.551,3.551,0,0,1,.888,2.571,3.848,3.848,0,0,1-.847,2.438,5.516,5.516,0,0,1-2.5,1.692,11.463,11.463,0,0,1-3.974.613,16.338,16.338,0,0,1-3.659-.413,9.8,9.8,0,0,1-2.895-1.079L25.184,18.6a17.5,17.5,0,0,0,2.4.728,13.462,13.462,0,0,0,3,.289c2,.026,1.683-.9,1.683-.9" transform="translate(1.954 1.223)"/><path class="d" d="M48.039,24.911a4.771,4.771,0,0,1-1.538.668,7.765,7.765,0,0,1-1.932.232A5.724,5.724,0,0,1,40.3,24.3a6.173,6.173,0,0,1-1.485-4.5V6.291h4.995V8.944H47.04v4.439H43.806v5.942a2.009,2.009,0,0,0,.394,1.336,1.337,1.337,0,0,0,1.078.465,2.469,2.469,0,0,0,1.525-.493Z" transform="translate(3.144 -0.119)"/><path class="d" d="M101.856,18.609a3.622,3.622,0,0,0,.841-2.542,3.533,3.533,0,0,0-.841-2.5,3.02,3.02,0,0,0-4.312,0,3.532,3.532,0,0,0-.841,2.5,3.621,3.621,0,0,0,.841,2.542,2.99,2.99,0,0,0,4.312,0m-6.283,3.979a7.177,7.177,0,0,1-2.879-2.662,7.265,7.265,0,0,1-1.038-3.859,7.217,7.217,0,0,1,1.038-3.832A7.106,7.106,0,0,1,95.56,9.586a9.574,9.574,0,0,1,8.294,0,7.025,7.025,0,0,1,2.865,2.635,7.268,7.268,0,0,1,1.025,3.846,7.336,7.336,0,0,1-1.025,3.859,7.085,7.085,0,0,1-2.865,2.662,9.429,9.429,0,0,1-8.281,0" transform="translate(8.007 1.223)"/><path class="d" d="M125.972,18.609a3.622,3.622,0,0,0,.841-2.542,3.533,3.533,0,0,0-.841-2.5,3.02,3.02,0,0,0-4.311,0,3.53,3.53,0,0,0-.841,2.5,3.62,3.62,0,0,0,.841,2.542,2.99,2.99,0,0,0,4.311,0m-6.283,3.979a7.175,7.175,0,0,1-2.878-2.662,7.263,7.263,0,0,1-1.039-3.859,7.215,7.215,0,0,1,1.039-3.832,7.105,7.105,0,0,1,2.865-2.648,9.574,9.574,0,0,1,8.294,0,7.025,7.025,0,0,1,2.865,2.635,7.265,7.265,0,0,1,1.025,3.846,7.334,7.334,0,0,1-1.025,3.859,7.085,7.085,0,0,1-2.865,2.662,9.429,9.429,0,0,1-8.281,0" transform="translate(10.14 1.223)"/><path class="d" d="M5.735,23.142c0,.535-1.264.969-2.824.969S.088,23.677.088,23.142V9.579c0-.521,1.264-.942,2.824-.942s2.824.422,2.824.942Z" transform="translate(-0.088 1.277)"/><path class="e" d="M5.735,9.58c0,.521-1.264.943-2.824.943S.088,10.1.088,9.58s1.264-.943,2.824-.943,2.824.422,2.824.943" transform="translate(-0.088 0.588)"/><path class="f" d="M5.639,2.874A2.728,2.728,0,1,1,2.911.119,2.741,2.741,0,0,1,5.639,2.874" transform="translate(-0.088 -0.119)"/><path class="d" d="M22.168,15.789a7.246,7.246,0,0,0-7.333-7.155A7.246,7.246,0,0,0,7.5,15.789v7.749h5V16.381q0-2.847,2.34-2.847h0q2.339,0,2.34,2.847v7.157h5V15.789Z" transform="translate(-0.088 1.221)"/><path class="d" d="M58.251,18.479a3.373,3.373,0,0,0,.832-2.422,3.292,3.292,0,0,0-.832-2.384,3.065,3.065,0,0,0-4.263,0,3.29,3.29,0,0,0-.832,2.384,3.371,3.371,0,0,0,.832,2.422,3.034,3.034,0,0,0,4.263,0Zm-9.962-2.16a7.89,7.89,0,0,1,15.775,0l0,.715v6.512h-4.7v-1.6a5.194,5.194,0,0,1-4.159,1.6,7.067,7.067,0,0,1-3.5-.875,6.423,6.423,0,0,1-2.5-2.5,7.458,7.458,0,0,1-.923-3.753Z" transform="translate(4.162 1.221)"/><path class="d" d="M90.145,15.782a7.246,7.246,0,0,0-7.333-7.155,7.409,7.409,0,0,0-4.837,1.78,7.408,7.408,0,0,0-4.837-1.78A7.246,7.246,0,0,0,65.8,15.782v7.749h5V16.374q0-2.847,2.34-2.847t2.339,2.847v7.157h5V16.374q0-2.847,2.34-2.847t2.34,2.847v7.157h4.995V15.782Z" transform="translate(6.168 1.22)"/><path class="d" d="M114.248,23.823a5.683,5.683,0,0,1-.88,3.291,5.171,5.171,0,0,1-2.14,1.845,5.873,5.873,0,0,1-2.411.568l-1.663-3.7a3.129,3.129,0,0,0,1.372-.75,2.377,2.377,0,0,0,.582-1.264,14.006,14.006,0,0,0,.139-2.258V8.642h5Z" transform="translate(10.14 2.164)"/></g></g></g></g></g></g></svg>