<svg xmlns="http://www.w3.org/2000/svg" width="18.013" height="18.013" viewBox="0 0 18.013 18.013"><defs><style>.a{fill:#2a2a2a;}</style></defs><path class="a" d="M12.647,0H5.366A5.372,5.372,0,0,0,0,5.366v7.281a5.372,5.372,0,0,0,5.366,5.366h7.281a5.372,5.372,0,0,0,5.366-5.366V5.366A5.372,5.372,0,0,0,12.647,0ZM16.2,12.647A3.554,3.554,0,0,1,12.647,16.2H5.366a3.554,3.554,0,0,1-3.554-3.554V5.366A3.554,3.554,0,0,1,5.366,1.812h7.281A3.554,3.554,0,0,1,16.2,5.366v7.281Z"/><path class="a" d="M137.149,133a4.149,4.149,0,1,0,4.149,4.149A4.153,4.153,0,0,0,137.149,133Zm0,6.684a2.535,2.535,0,1,1,2.535-2.535A2.535,2.535,0,0,1,137.149,139.684Z" transform="translate(-128.142 -128.142)"/><circle class="a" cx="1.247" cy="1.247" r="1.247" transform="translate(12.35 3.212)"/></svg>