<svg xmlns="http://www.w3.org/2000/svg" width="35" height="35" viewBox="0 0 35 35"><defs><style>.a{fill:#e2886c;}.b{fill:#fff;}</style></defs><g transform="translate(-455 -1203)"><rect class="a" width="35" height="35" rx="17.5" transform="translate(455 1203)"/><g transform="translate(454.426 1201.374)"><path class="b" d="M49.416,47.061v-6.3c0-3.1-.667-5.461-4.279-5.461a3.733,3.733,0,0,0-3.376,1.849h-.043V35.58H38.3V47.061h3.569v-5.7c0-1.505.28-2.946,2.129-2.946,1.828,0,1.849,1.7,1.849,3.032v5.59h3.569Z" transform="translate(-22.215 -19.86)"/><path class="b" d="M11.3,36.6h3.569V48.081H11.3Z" transform="translate(-1.02 -20.881)"/><path class="b" d="M12.064,10a2.075,2.075,0,1,0,2.064,2.064A2.065,2.065,0,0,0,12.064,10Z"/></g></g></svg>