<svg xmlns="http://www.w3.org/2000/svg" width="35" height="35" viewBox="0 0 35 35"><defs><style>.a{fill:#e2886c;}.b{fill:#fff;}</style></defs><g transform="translate(-544 -1203)"><rect class="a" width="35" height="35" rx="17.5" transform="translate(544 1203)"/><g transform="translate(552.746 1138.349)"><g transform="translate(0.907 82.962)"><g transform="translate(0 0)"><path class="b" d="M36.8,277.251l-1.483,1.488a1.642,1.642,0,0,1-2.275,0l-1.484-1.488L26.226,282.6a1.541,1.541,0,0,0,.649.146h14.6a1.54,1.54,0,0,0,.649-.146Z" transform="translate(-26.226 -277.251)"/></g></g><g transform="translate(0.907 76)"><g transform="translate(0 0)"><path class="b" d="M41.477,76h-14.6a1.541,1.541,0,0,0-.649.146l5.694,5.712h0l1.851,1.857a.623.623,0,0,0,.805,0l1.851-1.857h0l5.693-5.712A1.54,1.54,0,0,0,41.477,76Z" transform="translate(-26.228 -76)"/></g></g><g transform="translate(0 76.872)"><g transform="translate(0 0)"><path class="b" d="M.166,101.212A1.538,1.538,0,0,0,0,101.9v9.341a1.537,1.537,0,0,0,.166.685L5.5,106.567Z" transform="translate(0 -101.212)"/></g></g><g transform="translate(12.21 76.872)"><g transform="translate(0 0)"><path class="b" d="M358.27,101.21l-5.337,5.355,5.337,5.355a1.537,1.537,0,0,0,.166-.685v-9.341A1.537,1.537,0,0,0,358.27,101.21Z" transform="translate(-352.933 -101.21)"/></g></g></g></g></svg>