<svg xmlns="http://www.w3.org/2000/svg" width="35" height="35" viewBox="0 0 35 35"><defs><style>.a{fill:#e2886c;}.b{fill:#fff;}</style></defs><g transform="translate(-414 -1204)"><rect class="a" width="35" height="35" rx="17.5" transform="translate(414 1204)"/><path class="b" d="M55.6,0C50.64,0,48,3.177,48,6.641c0,1.606.9,3.61,2.335,4.245.218.1.337.057.386-.146.043-.154.232-.894.323-1.244a.32.32,0,0,0-.077-.314,4.119,4.119,0,0,1-.856-2.5A4.873,4.873,0,0,1,55.3,1.921c2.826,0,4.8,1.836,4.8,4.462,0,2.968-1.57,5.021-3.611,5.021a1.617,1.617,0,0,1-1.7-1.983,21.493,21.493,0,0,0,.954-3.652A1.4,1.4,0,0,0,54.3,4.226c-1.15,0-2.082,1.138-2.082,2.667a3.8,3.8,0,0,0,.344,1.627s-1.137,4.594-1.349,5.453a12.2,12.2,0,0,0,.084,4.008.119.119,0,0,0,.217.055,14.244,14.244,0,0,0,1.872-3.526c.14-.517.716-2.612.716-2.612a3.125,3.125,0,0,0,2.636,1.257c3.464,0,5.967-3.045,5.967-6.823C62.687,2.71,59.587,0,55.6,0" transform="translate(375.661 1212.474)"/></g></svg>