<svg xmlns="http://www.w3.org/2000/svg" width="14.434" height="17.765" viewBox="0 0 14.434 17.765"><defs><style>.a{fill:#2a2a2a;}</style></defs><path class="a" d="M55.462,0C50.593,0,48,3.12,48,6.522c0,1.578.882,3.545,2.293,4.17.214.1.331.056.379-.143.042-.151.228-.878.318-1.221a.314.314,0,0,0-.076-.309,4.046,4.046,0,0,1-.841-2.455,4.786,4.786,0,0,1,5.1-4.677c2.776,0,4.718,1.8,4.718,4.383,0,2.915-1.542,4.931-3.547,4.931a1.588,1.588,0,0,1-1.673-1.948,21.11,21.11,0,0,0,.937-3.587,1.378,1.378,0,0,0-1.426-1.516c-1.129,0-2.045,1.118-2.045,2.619a3.734,3.734,0,0,0,.338,1.6s-1.117,4.513-1.325,5.355a11.984,11.984,0,0,0,.082,3.936.117.117,0,0,0,.213.054,13.99,13.99,0,0,0,1.839-3.463c.138-.507.7-2.565.7-2.565a3.07,3.07,0,0,0,2.589,1.235c3.4,0,5.861-2.99,5.861-6.7C62.426,2.662,59.381,0,55.462,0" transform="translate(-48.004)"/></svg>