<svg xmlns="http://www.w3.org/2000/svg" width="35" height="35" viewBox="0 0 35 35"><defs><style>.a{fill:#e2886c;}.b{fill:#fff;}</style></defs><g transform="translate(-585 -1203)"><rect class="a" width="35" height="35" rx="17.5" transform="translate(585 1203)"/><g transform="translate(-330.118 358.672)"><g transform="translate(925.468 853.946)"><g transform="translate(0 4.832)"><path class="b" d="M9.21,165.641a3.411,3.411,0,0,0-.589-.473,3.508,3.508,0,0,0-4.371.473L1.064,168.83a3.507,3.507,0,0,0,4.957,4.962l2.63-2.63a.251.251,0,0,0-.178-.428h-.1a4.217,4.217,0,0,1-1.6-.311.25.25,0,0,0-.273.055l-1.891,1.894a1.5,1.5,0,0,1-2.127-2.127l3.2-3.2a1.5,1.5,0,0,1,2.124,0,1.027,1.027,0,0,0,1.408,0,.992.992,0,0,0,0-1.408Z" transform="translate(-0.039 -164.614)"/></g><g transform="translate(5.562 0)"><path class="b" d="M197.943,1.027a3.507,3.507,0,0,0-4.96,0l-2.628,2.625a.251.251,0,0,0,.183.428h.093a4.209,4.209,0,0,1,1.6.313.251.251,0,0,0,.273-.055l1.886-1.884a1.5,1.5,0,1,1,2.127,2.127l-2.35,2.347-.02.023-.822.817a1.5,1.5,0,0,1-2.124,0,1.027,1.027,0,0,0-1.408,0,1,1,0,0,0,0,1.413,3.478,3.478,0,0,0,1,.7c.053.025.105.045.158.068s.108.04.16.06.108.038.16.053l.148.04c.1.025.2.045.3.063a3.487,3.487,0,0,0,.373.035h.19l.15-.018c.055,0,.113-.015.178-.015h.085l.173-.025.08-.015.145-.03h.028a3.507,3.507,0,0,0,1.626-.922l3.189-3.189A3.507,3.507,0,0,0,197.943,1.027Z" transform="translate(-189.502 0)"/></g></g></g></g></svg>