<svg xmlns="http://www.w3.org/2000/svg" width="35" height="35" viewBox="0 0 35 35"><defs><style>.a{fill:#e2886c;}.b{fill:#fff;}</style></defs><g transform="translate(-371 -1204)"><rect class="a" width="35" height="35" rx="17.5" transform="translate(371 1204)"/><path class="b" d="M5.623,10.5A10.216,10.216,0,0,0,15.909.21q0-.235-.01-.467a7.357,7.357,0,0,0,1.8-1.872,7.213,7.213,0,0,1-2.076.569,3.629,3.629,0,0,0,1.59-2,7.251,7.251,0,0,1-2.3.877,3.611,3.611,0,0,0-2.639-1.142A3.616,3.616,0,0,0,8.666-.209,3.612,3.612,0,0,0,8.76.615,10.264,10.264,0,0,1,1.308-3.162,3.607,3.607,0,0,0,.818-1.345,3.612,3.612,0,0,0,2.427,1.664,3.587,3.587,0,0,1,.79,1.212c0,.015,0,.03,0,.046A3.616,3.616,0,0,0,3.69,4.8a3.628,3.628,0,0,1-.953.127,3.593,3.593,0,0,1-.68-.065A3.619,3.619,0,0,0,5.434,7.375,7.253,7.253,0,0,1,.944,8.922a7.357,7.357,0,0,1-.862-.05A10.233,10.233,0,0,0,5.623,10.5" transform="translate(379.608 1218.582)"/></g></svg>