<svg xmlns="http://www.w3.org/2000/svg" width="18.581" height="15.101" viewBox="0 0 18.581 15.101"><defs><style>.a{fill:#2a2a2a;}</style></defs><path class="a" d="M5.925,11.277A10.773,10.773,0,0,0,16.772.43q0-.247-.011-.493a7.758,7.758,0,0,0,1.9-1.974,7.606,7.606,0,0,1-2.189.6A3.827,3.827,0,0,0,18.15-3.545a7.646,7.646,0,0,1-2.421.925,3.808,3.808,0,0,0-2.783-1.2A3.813,3.813,0,0,0,9.134-.012a3.809,3.809,0,0,0,.1.869A10.824,10.824,0,0,1,1.375-3.126,3.8,3.8,0,0,0,.859-1.21a3.809,3.809,0,0,0,1.7,3.173A3.783,3.783,0,0,1,.828,1.487c0,.016,0,.032,0,.049A3.813,3.813,0,0,0,3.887,5.272a3.826,3.826,0,0,1-1.005.134,3.789,3.789,0,0,1-.717-.069A3.816,3.816,0,0,0,5.726,7.985,7.648,7.648,0,0,1,.991,9.617a7.758,7.758,0,0,1-.909-.053,10.791,10.791,0,0,0,5.844,1.713" transform="translate(-0.082 3.824)"/></svg>